<svg xmlns="http://www.w3.org/2000/svg" width="256" height="256" viewBox="0 0 100 100"><rect width="100" height="100" rx="20" fill="#007bff" style="--darkreader-inline-fill: #0062cc;" data-darkreader-inline-fill=""></rect><path fill="#fff" style="--darkreader-inline-fill: #e8e6e3;" data-darkreader-inline-fill="" d="M14.64 31.16L14.64 62.60L31.12 62.60L31.12 68.84L6.87 68.84L6.87 31.16L14.64 31.16ZM43.34 31.16L43.34 62.60L59.82 62.60L59.82 68.84L35.57 68.84L35.57 31.16L43.34 31.16ZM78.84 55.56L72.04 55.56L72.04 68.84L64.27 68.84L64.27 31.16L78.97 31.16Q83.22 31.16 86.44 32.71Q89.66 34.27 91.39 37.13Q93.13 39.98 93.13 43.63L93.13 43.63Q93.13 49.17 89.34 52.37Q85.54 55.56 78.84 55.56L78.84 55.56ZM72.04 37.45L72.04 49.28L78.97 49.28Q82.05 49.28 83.67 47.83Q85.29 46.38 85.29 43.69L85.29 43.69Q85.29 40.92 83.66 39.21Q82.03 37.50 79.15 37.45L79.15 37.45L72.04 37.45Z"></path></svg>